<?xml version="1.0" encoding="UTF-8" standalone="yes"?><svg xmlns="http://www.w3.org/2000/svg" xmlns:xlink="http://www.w3.org/1999/xlink" height="1073px" style="width:1148px;height:1073px;" version="1.1" viewBox="0 0 1148 1073" width="1148px"><defs><filter height="300%" id="f1" width="300%" x="-1" y="-1"><feGaussianBlur result="blurOut" stdDeviation="2.0"/><feColorMatrix in="blurOut" result="blurOut2" type="matrix" values="0 0 0 0 0 0 0 0 0 0 0 0 0 0 0 0 0 0 .4 0"/><feOffset dx="4.0" dy="4.0" in="blurOut2" result="blurOut3"/><feBlend in="SourceGraphic" in2="blurOut3" mode="normal"/></filter></defs><g><polygon fill="#FFFFFF" filter="url(#f1)" points="72,24,166,24,173,51,1141,51,1141,384,72,384,72,24" style="stroke: #000000; stroke-width: 2.0;"/><line style="stroke: #000000; stroke-width: 2.0;" x1="72" x2="173" y1="51" y2="51"/><text fill="#000000" font-family="Meiryo" font-size="14" font-weight="bold" lengthAdjust="spacingAndGlyphs" textLength="88" x="75" y="41.8408">ViewModels</text><polygon fill="#FFFFFF" filter="url(#f1)" points="442,437,582,437,589,464,642,464,642,537,442,537,442,437" style="stroke: #000000; stroke-width: 2.0;"/><line style="stroke: #000000; stroke-width: 2.0;" x1="442" x2="589" y1="464" y2="464"/><text fill="#000000" font-family="Meiryo" font-size="14" font-weight="bold" lengthAdjust="spacingAndGlyphs" textLength="134" x="445" y="454.8408">Reactive.Bindings</text><polygon fill="#FFFFFF" filter="url(#f1)" points="22,743,80,743,87,770,1047,770,1047,1066,22,1066,22,743" style="stroke: #000000; stroke-width: 2.0;"/><line style="stroke: #000000; stroke-width: 2.0;" x1="22" x2="87" y1="770" y2="770"/><text fill="#000000" font-family="Meiryo" font-size="14" font-weight="bold" lengthAdjust="spacingAndGlyphs" textLength="52" x="25" y="760.8408">Models</text><polygon fill="#FFFFFF" filter="url(#f1)" points="434,590,678,590,685,617,688,617,688,690,434,690,434,590" style="stroke: #000000; stroke-width: 2.0;"/><line style="stroke: #000000; stroke-width: 2.0;" x1="434" x2="685" y1="617" y2="617"/><text fill="#000000" font-family="Meiryo" font-size="14" font-weight="bold" lengthAdjust="spacingAndGlyphs" textLength="238" x="437" y="607.8408">System.Collections.ObjectModel</text><rect fill="#FEFECE" filter="url(#f1)" height="303.5" style="stroke: #A80036; stroke-width: 1.5;" width="404" x="88" y="64"/><text fill="#000000" font-family="Meiryo" font-size="12" lengthAdjust="spacingAndGlyphs" textLength="135" x="222.5" y="81.7207">MainWindowViewModel</text><line style="stroke: #A80036; stroke-width: 1.5;" x1="89" x2="491" y1="92" y2="92"/><text fill="#000000" font-family="Meiryo" font-size="11" lengthAdjust="spacingAndGlyphs" textLength="278" x="94" y="128.1606">+SearchWord : ReactiveProperty&lt;string&gt; { get; }</text><text fill="#000000" font-family="Meiryo" font-size="11" lengthAdjust="spacingAndGlyphs" textLength="375" x="94" y="144.6606">+SelectedImage : ReactiveProperty&lt;WebImageViewModel&gt; { get; }</text><text fill="#000000" font-family="Meiryo" font-size="11" lengthAdjust="spacingAndGlyphs" textLength="305" x="94" y="161.1606">+PercentProgress : ReactiveProperty&lt;double&gt; { get; }</text><text fill="#000000" font-family="Meiryo" font-size="11" lengthAdjust="spacingAndGlyphs" textLength="372" x="94" y="177.6606">+StatusMessage : ReadOnlyReactiveProperty&lt;LogMessage&gt; { get; }</text><text fill="#000000" font-family="Meiryo" font-size="11" lengthAdjust="spacingAndGlyphs" textLength="324" x="94" y="194.1606">+ErrorLogsVisibility : ReactiveProperty&lt;Visibility&gt; { get; }</text><line style="stroke: #A80036; stroke-width: 1.0; stroke-dasharray: 1.0,2.0;" x1="89" x2="238" y1="108.25" y2="108.25"/><text fill="#000000" font-family="Meiryo" font-size="11" lengthAdjust="spacingAndGlyphs" textLength="104" x="238" y="111.1606">Reactive Properties</text><line style="stroke: #A80036; stroke-width: 1.0; stroke-dasharray: 1.0,2.0;" x1="342" x2="491" y1="108.25" y2="108.25"/><text fill="#000000" font-family="Meiryo" font-size="11" lengthAdjust="spacingAndGlyphs" textLength="355" x="94" y="231.1606">+ErrorLogs : ReadOnlyReactiveCollection&lt;LogMessage&gt; { get; }</text><text fill="#000000" font-family="Meiryo" font-size="11" lengthAdjust="spacingAndGlyphs" textLength="392" x="94" y="247.6606">+Images : ReadOnlyReactiveCollection&lt;WebImageViewModel&gt; { get; }</text><line style="stroke: #A80036; stroke-width: 1.0; stroke-dasharray: 1.0,2.0;" x1="89" x2="239" y1="211.25" y2="211.25"/><text fill="#000000" font-family="Meiryo" font-size="11" lengthAdjust="spacingAndGlyphs" textLength="102" x="239" y="214.1606">Reactive Collection</text><line style="stroke: #A80036; stroke-width: 1.0; stroke-dasharray: 1.0,2.0;" x1="341" x2="491" y1="211.25" y2="211.25"/><text fill="#000000" font-family="Meiryo" font-size="11" lengthAdjust="spacingAndGlyphs" textLength="264" x="94" y="284.6606">+SearchCommand : ReactiveCommand { get; }</text><text fill="#000000" font-family="Meiryo" font-size="11" lengthAdjust="spacingAndGlyphs" textLength="262" x="94" y="301.1606">+CancelCommand : ReactiveCommand { get; }</text><text fill="#000000" font-family="Meiryo" font-size="11" lengthAdjust="spacingAndGlyphs" textLength="308" x="94" y="317.6606">+ClearErrorLogsCommand : ReactiveCommand { get; }</text><line style="stroke: #A80036; stroke-width: 1.0; stroke-dasharray: 1.0,2.0;" x1="89" x2="235" y1="264.75" y2="264.75"/><text fill="#000000" font-family="Meiryo" font-size="11" lengthAdjust="spacingAndGlyphs" textLength="110" x="235" y="267.6606">Reactive Commands</text><line style="stroke: #A80036; stroke-width: 1.0; stroke-dasharray: 1.0,2.0;" x1="345" x2="491" y1="264.75" y2="264.75"/><line style="stroke: #A80036; stroke-width: 1.0;" x1="89" x2="491" y1="326.5" y2="326.5"/><text fill="#000000" font-family="Meiryo" font-size="11" lengthAdjust="spacingAndGlyphs" textLength="146" x="94" y="342.1606">+MainWindowViewModel()</text><text fill="#000000" font-family="Meiryo" font-size="11" lengthAdjust="spacingAndGlyphs" textLength="96" x="94" y="358.6606">+Dispose() : void</text><rect fill="#FEFECE" filter="url(#f1)" height="299.5" style="stroke: #A80036; stroke-width: 1.5;" width="515" x="609.5" y="66.5"/><text fill="#000000" font-family="Meiryo" font-size="12" lengthAdjust="spacingAndGlyphs" textLength="126" x="804" y="84.2207">WebImageViewModel</text><line style="stroke: #A80036; stroke-width: 1.5;" x1="610.5" x2="1123.5" y1="94.5" y2="94.5"/><text fill="#000000" font-family="Meiryo" font-size="11" lengthAdjust="spacingAndGlyphs" textLength="361" x="615.5" y="130.6606">+Thumbnail : ReadOnlyReactiveProperty&lt;ImageSource&gt; { get; }</text><text fill="#000000" font-family="Meiryo" font-size="11" lengthAdjust="spacingAndGlyphs" textLength="375" x="615.5" y="147.1606">+DisplayImage : ReadOnlyReactiveProperty&lt;ImageSource&gt; { get; }</text><text fill="#000000" font-family="Meiryo" font-size="11" lengthAdjust="spacingAndGlyphs" textLength="343" x="615.5" y="163.6606">+Overlay : ReadOnlyReactiveProperty&lt;ImageSource&gt; { get; }</text><text fill="#000000" font-family="Meiryo" font-size="11" lengthAdjust="spacingAndGlyphs" textLength="316" x="615.5" y="180.1606">+SourceUrl : ReadOnlyReactiveProperty&lt;string&gt; { get; }</text><text fill="#000000" font-family="Meiryo" font-size="11" lengthAdjust="spacingAndGlyphs" textLength="323" x="615.5" y="196.6606">+SourceTitle : ReadOnlyReactiveProperty&lt;string&gt; { get; }</text><text fill="#000000" font-family="Meiryo" font-size="11" lengthAdjust="spacingAndGlyphs" textLength="393" x="615.5" y="213.1606">+ImageProperty : ReadOnlyReactiveProperty&lt;ImageProperty&gt; { get; }</text><text fill="#000000" font-family="Meiryo" font-size="11" lengthAdjust="spacingAndGlyphs" textLength="322" x="615.5" y="229.6606">+IsProcessing : ReadOnlyReactiveProperty&lt;bool&gt; { get; }</text><text fill="#000000" font-family="Meiryo" font-size="11" lengthAdjust="spacingAndGlyphs" textLength="368" x="615.5" y="246.1606">+ProgressVisibility : ReadOnlyReactiveProperty&lt;Visibility&gt; { get; }</text><line style="stroke: #A80036; stroke-width: 1.0; stroke-dasharray: 1.0,2.0;" x1="610.5" x2="819" y1="110.75" y2="110.75"/><text fill="#000000" font-family="Meiryo" font-size="11" lengthAdjust="spacingAndGlyphs" textLength="96" x="819" y="113.6606">Reactive Property</text><line style="stroke: #A80036; stroke-width: 1.0; stroke-dasharray: 1.0,2.0;" x1="915" x2="1123.5" y1="110.75" y2="110.75"/><text fill="#000000" font-family="Meiryo" font-size="11" lengthAdjust="spacingAndGlyphs" textLength="336" x="615.5" y="283.1606">+SizeChangedCommand : ReactiveCommand&lt;Size&gt; { get; }</text><text fill="#000000" font-family="Meiryo" font-size="11" lengthAdjust="spacingAndGlyphs" textLength="273" x="615.5" y="299.6606">+NavigateCommand : ReactiveCommand { get; }</text><line style="stroke: #A80036; stroke-width: 1.0; stroke-dasharray: 1.0,2.0;" x1="610.5" x2="814.5" y1="263.25" y2="263.25"/><text fill="#000000" font-family="Meiryo" font-size="11" lengthAdjust="spacingAndGlyphs" textLength="105" x="814.5" y="266.1606">Reactive Command</text><line style="stroke: #A80036; stroke-width: 1.0; stroke-dasharray: 1.0,2.0;" x1="919.5" x2="1123.5" y1="263.25" y2="263.25"/><line style="stroke: #A80036; stroke-width: 1.0;" x1="610.5" x2="1123.5" y1="308.5" y2="308.5"/><text fill="#000000" font-family="Meiryo" font-size="11" lengthAdjust="spacingAndGlyphs" textLength="503" x="615.5" y="324.1606">+WebImageViewModel(source:WebImage, visionApiSubscriptionKey:string, logger:ILogger)</text><text fill="#000000" font-family="Meiryo" font-size="11" lengthAdjust="spacingAndGlyphs" textLength="258" x="615.5" y="340.6606">+«async» DownloadImageDetailsAsync() : Task</text><text fill="#000000" font-family="Meiryo" font-size="11" lengthAdjust="spacingAndGlyphs" textLength="96" x="615.5" y="357.1606">+Dispose() : void</text><rect fill="#FEFECE" filter="url(#f1)" height="44" style="stroke: #A80036; stroke-width: 1.5;" width="167" x="458.5" y="477"/><text fill="#000000" font-family="Meiryo" font-size="12" lengthAdjust="spacingAndGlyphs" textLength="161" x="461.5" y="494.7207">ReadOnlyReactiveCollection</text><line style="stroke: #A80036; stroke-width: 1.5;" x1="459.5" x2="624.5" y1="505" y2="505"/><line style="stroke: #A80036; stroke-width: 1.5;" x1="459.5" x2="624.5" y1="513" y2="513"/><rect fill="#FEFECE" filter="url(#f1)" height="266.5" style="stroke: #A80036; stroke-width: 1.5;" width="343" x="687.5" y="783"/><text fill="#000000" font-family="Meiryo" font-size="12" lengthAdjust="spacingAndGlyphs" textLength="64" x="827" y="800.7207">WebImage</text><line style="stroke: #A80036; stroke-width: 1.5;" x1="688.5" x2="1029.5" y1="811" y2="811"/><text fill="#000000" font-family="Meiryo" font-size="11" lengthAdjust="spacingAndGlyphs" textLength="329" x="693.5" y="826.6606">+«event» PropertyChanged : PropertyChangedEventHandler</text><line style="stroke: #A80036; stroke-width: 1.0;" x1="688.5" x2="1029.5" y1="835.5" y2="835.5"/><text fill="#000000" font-family="Meiryo" font-size="11" lengthAdjust="spacingAndGlyphs" textLength="192" x="693.5" y="851.1606">+Thumbnail : ImageSource {get;}</text><text fill="#000000" font-family="Meiryo" font-size="11" lengthAdjust="spacingAndGlyphs" textLength="206" x="693.5" y="867.6606">+DisplayImage : ImageSource {get;}</text><text fill="#000000" font-family="Meiryo" font-size="11" lengthAdjust="spacingAndGlyphs" textLength="174" x="693.5" y="884.1606">+Overlay : ImageSource {get;}</text><text fill="#000000" font-family="Meiryo" font-size="11" lengthAdjust="spacingAndGlyphs" textLength="125" x="693.5" y="900.6606">+MediaUrl : Uri {get;}</text><text fill="#000000" font-family="Meiryo" font-size="11" lengthAdjust="spacingAndGlyphs" textLength="151" x="693.5" y="917.1606">+SourceUrl : string  {get;}</text><text fill="#000000" font-family="Meiryo" font-size="11" lengthAdjust="spacingAndGlyphs" textLength="158" x="693.5" y="933.6606">+SourceTitle : string  {get;}</text><text fill="#000000" font-family="Meiryo" font-size="11" lengthAdjust="spacingAndGlyphs" textLength="224" x="693.5" y="950.1606">+ImageProperty : ImageProperty {get;}</text><line style="stroke: #A80036; stroke-width: 1.0;" x1="688.5" x2="1029.5" y1="959" y2="959"/><text fill="#000000" font-family="Meiryo" font-size="11" lengthAdjust="spacingAndGlyphs" textLength="294" x="693.5" y="974.6606">+WebImage(ImageResult bingResult, ILogger logger)</text><text fill="#000000" font-family="Meiryo" font-size="11" lengthAdjust="spacingAndGlyphs" textLength="242" x="693.5" y="991.1606">+«async» DownLoadThumbnailAsync():Task</text><text fill="#000000" font-family="Meiryo" font-size="11" lengthAdjust="spacingAndGlyphs" textLength="237" x="693.5" y="1007.6606">+«async» DownLoadFullImageAsync():Task</text><text fill="#000000" font-family="Meiryo" font-size="11" lengthAdjust="spacingAndGlyphs" textLength="331" x="693.5" y="1024.1606">+«async» AnalyzeImageAsync(subscriptionKey:string) : Task</text><text fill="#000000" font-family="Meiryo" font-size="11" lengthAdjust="spacingAndGlyphs" textLength="213" x="693.5" y="1040.6606">+DrawFaceRect(imageSize:Size) : void</text><rect fill="#FEFECE" filter="url(#f1)" height="143" style="stroke: #A80036; stroke-width: 1.5;" width="531" x="38.5" y="845"/><text fill="#000000" font-family="Meiryo" font-size="12" lengthAdjust="spacingAndGlyphs" textLength="96" x="256" y="862.7207">WebImageStore</text><line style="stroke: #A80036; stroke-width: 1.5;" x1="39.5" x2="568.5" y1="873" y2="873"/><text fill="#000000" font-family="Meiryo" font-size="11" lengthAdjust="spacingAndGlyphs" textLength="344" x="44.5" y="888.6606">+Images : ReadOnlyObservableCollection&lt;WebImage&gt; { get;}</text><line style="stroke: #A80036; stroke-width: 1.0;" x1="39.5" x2="568.5" y1="897.5" y2="897.5"/><text fill="#000000" font-family="Meiryo" font-size="11" lengthAdjust="spacingAndGlyphs" textLength="519" x="44.5" y="913.1606">+WebImageStore(bingApiAccountKey:string , visionApiSubscriptionKey:string, logger:ILogger)</text><text fill="#000000" font-family="Meiryo" font-size="11" lengthAdjust="spacingAndGlyphs" textLength="82" x="44.5" y="929.6606">+Cancel():void</text><text fill="#000000" font-family="Meiryo" font-size="11" lengthAdjust="spacingAndGlyphs" textLength="74" x="44.5" y="946.1606">+Clear():void</text><text fill="#000000" font-family="Meiryo" font-size="11" lengthAdjust="spacingAndGlyphs" textLength="415" x="44.5" y="962.6606">+DownloadWebImage(searchWord:string , progress:IProgressNotifier):void</text><text fill="#000000" font-family="Meiryo" font-size="11" lengthAdjust="spacingAndGlyphs" textLength="88" x="44.5" y="979.1606">+Dispose():void</text><rect fill="#FEFECE" filter="url(#f1)" height="44" style="stroke: #A80036; stroke-width: 1.5;" width="182" x="451" y="630"/><text fill="#000000" font-family="Meiryo" font-size="12" lengthAdjust="spacingAndGlyphs" textLength="176" x="454" y="647.7207">ReadOnlyObservableCollection</text><line style="stroke: #A80036; stroke-width: 1.5;" x1="452" x2="632" y1="658" y2="658"/><line style="stroke: #A80036; stroke-width: 1.5;" x1="452" x2="632" y1="666" y2="666"/><path d="M434.571,378.208 C469.758,417.444 502.969,454.478 522.902,476.705 " fill="none" style="stroke: #A80036; stroke-width: 1.0;"/><polygon fill="#A80036" points="425.589,368.193,426.6171,375.3304,433.6009,377.1266,432.5728,369.9892,425.589,368.193" style="stroke: #A80036; stroke-width: 1.0;"/><text fill="#000000" font-family="Meiryo" font-size="13" lengthAdjust="spacingAndGlyphs" textLength="47" x="468" y="414.7808">Images</text><path d="M694.983,365.728 C649.826,404.772 605.653,442.965 576.475,468.192 " fill="none" style="stroke: #A80036; stroke-width: 1.0;"/><polygon fill="none" points="566.43,476.878,573.5849,475.9796,575.5075,469.0295,568.3526,469.9279,566.43,476.878" style="stroke: #A80036; stroke-width: 1.0;"/><text fill="#000000" font-family="Meiryo" font-size="13" lengthAdjust="spacingAndGlyphs" textLength="34" x="648" y="414.7808">items</text><text fill="#000000" font-family="Meiryo" font-size="13" lengthAdjust="spacingAndGlyphs" textLength="26" x="659.4431" y="387.719">0..*</text><text fill="#000000" font-family="Meiryo" font-size="13" lengthAdjust="spacingAndGlyphs" textLength="8" x="563.9206" y="463.2275">1</text><path d="M492.212,216 C528.431,216 566.648,216 604.276,216 " fill="none" style="stroke: #A80036; stroke-width: 1.0;"/><polygon fill="#A80036" points="609.34,216,600.34,212,604.34,216,600.34,220,609.34,216" style="stroke: #A80036; stroke-width: 1.0;"/><text fill="#000000" font-family="Meiryo" font-size="13" lengthAdjust="spacingAndGlyphs" textLength="81" x="510.25" y="206.7808">&lt;&lt;create&gt;&gt;</text><path d="M522.926,674.038 C491.604,708.583 427.689,779.079 376.965,835.024 " fill="none" style="stroke: #A80036; stroke-width: 1.0;"/><polygon fill="#A80036" points="367.981,844.932,374.9746,843.1744,376.0421,836.0428,369.0485,837.8003,367.981,844.932" style="stroke: #A80036; stroke-width: 1.0;"/><text fill="#000000" font-family="Meiryo" font-size="13" lengthAdjust="spacingAndGlyphs" textLength="47" x="491" y="720.7808">Images</text><path d="M577.792,682.639 C607.931,707.596 653.305,745.169 698.86,782.892 " fill="none" style="stroke: #A80036; stroke-width: 1.0;"/><polygon fill="none" points="567.406,674.038,569.4761,680.9456,576.6485,681.6915,574.5784,674.7839,567.406,674.038" style="stroke: #A80036; stroke-width: 1.0;"/><text fill="#000000" font-family="Meiryo" font-size="13" lengthAdjust="spacingAndGlyphs" textLength="34" x="628" y="720.7808">items</text><text fill="#000000" font-family="Meiryo" font-size="13" lengthAdjust="spacingAndGlyphs" textLength="8" x="564.8913" y="695.9644">1</text><text fill="#000000" font-family="Meiryo" font-size="13" lengthAdjust="spacingAndGlyphs" textLength="26" x="662.8503" y="769.4282">0..*</text><path d="M569.715,916.5 C607.799,916.5 646.18,916.5 681.981,916.5 " fill="none" style="stroke: #A80036; stroke-width: 1.0;"/><polygon fill="#A80036" points="687.244,916.5,678.244,912.5,682.244,916.5,678.244,920.5,687.244,916.5" style="stroke: #A80036; stroke-width: 1.0;"/><text fill="#000000" font-family="Meiryo" font-size="13" lengthAdjust="spacingAndGlyphs" textLength="81" x="588" y="907.2808">&lt;&lt;create&gt;&gt;</text><path d="M293.293,381.286 C296.242,528.449 300.426,737.195 302.587,844.994 " fill="none" style="stroke: #A80036; stroke-width: 1.0;"/><polygon fill="#A80036" points="293.029,368.134,289.1505,374.2132,293.2703,380.1316,297.1489,374.0523,293.029,368.134" style="stroke: #A80036; stroke-width: 1.0;"/><text fill="#000000" font-family="Meiryo" font-size="13" lengthAdjust="spacingAndGlyphs" textLength="102" x="298" y="567.7808">webImageStore</text><path d="M865.147,378.789 C863.742,501.437 861.836,667.919 860.52,782.785 " fill="none" style="stroke: #A80036; stroke-width: 1.0;"/><polygon fill="none" points="865.299,365.561,861.23,371.5144,865.1605,377.5602,869.2295,371.6068,865.299,365.561" style="stroke: #A80036; stroke-width: 1.0;"/><text fill="#000000" font-family="Meiryo" font-size="13" lengthAdjust="spacingAndGlyphs" textLength="42" x="864" y="567.7808">source</text><path d="M542,534.649 C542,563.99 542,605.111 542,629.794 " fill="none" style="stroke: #A80036; stroke-width: 1.0;"/><polygon fill="none" points="542,521.314,538,527.314,542,533.314,546,527.314,542,521.314" style="stroke: #A80036; stroke-width: 1.0;"/><text fill="#000000" font-family="Meiryo" font-size="13" lengthAdjust="spacingAndGlyphs" textLength="42" x="543" y="567.7808">source</text></g></svg>